<?xml version="1.0" encoding="UTF-8" standalone="no"?>
<!-- Created with Inkscape (http://www.inkscape.org/) -->

<svg
   xmlns:dc="http://purl.org/dc/elements/1.1/"
   xmlns:cc="http://creativecommons.org/ns#"
   xmlns:rdf="http://www.w3.org/1999/02/22-rdf-syntax-ns#"
   xmlns:svg="http://www.w3.org/2000/svg"
   xmlns="http://www.w3.org/2000/svg"
   xmlns:sodipodi="http://sodipodi.sourceforge.net/DTD/sodipodi-0.dtd"
   xmlns:inkscape="http://www.inkscape.org/namespaces/inkscape"
   width="210mm"
   height="297mm"
   viewBox="0 0 210 297"
   version="1.1"
   id="svg8"
   inkscape:version="0.92.5 (2060ec1f9f, 2020-04-08)"
   sodipodi:docname="logo.svg">
  <defs
     id="defs2" />
  <sodipodi:namedview
     id="base"
     pagecolor="#ffffff"
     bordercolor="#666666"
     borderopacity="1.0"
     inkscape:pageopacity="0.0"
     inkscape:pageshadow="2"
     inkscape:zoom="0.80433396"
     inkscape:cx="188.16362"
     inkscape:cy="327.72603"
     inkscape:document-units="mm"
     inkscape:current-layer="layer1"
     showgrid="false"
     inkscape:window-width="1848"
     inkscape:window-height="1016"
     inkscape:window-x="72"
     inkscape:window-y="27"
     inkscape:window-maximized="1" />
  <metadata
     id="metadata5">
    <rdf:RDF>
      <cc:Work
         rdf:about="">
        <dc:format>image/svg+xml</dc:format>
        <dc:type
           rdf:resource="http://purl.org/dc/dcmitype/StillImage" />
        <dc:title></dc:title>
      </cc:Work>
    </rdf:RDF>
  </metadata>
  <g
     inkscape:label="Calque 1"
     inkscape:groupmode="layer"
     id="layer1">
    <circle
       style="opacity:1;fill:#2374a9;fill-opacity:1;fill-rule:nonzero;stroke:#ffc786;stroke-width:1.10000002;stroke-miterlimit:4;stroke-dasharray:none;stroke-opacity:1"
       id="path54"
       cx="79.681679"
       cy="162.46391"
       r="62.335167"
       inkscape:export-xdpi="9.6899996"
       inkscape:export-ydpi="9.6899996" />
    <path
       sodipodi:type="star"
       style="opacity:1;fill:#2374a9;fill-opacity:1;fill-rule:nonzero;stroke:#ffc786;stroke-width:0.62171566;stroke-miterlimit:4;stroke-dasharray:none;stroke-opacity:1"
       id="path872"
       sodipodi:sides="42"
       sodipodi:cx="109.92302"
       sodipodi:cy="174.50663"
       sodipodi:r1="26.586502"
       sodipodi:r2="13.293251"
       sodipodi:arg1="1.1760052"
       sodipodi:arg2="1.250805"
       inkscape:flatsided="false"
       inkscape:rounded="0"
       inkscape:randomized="0"
       d="m 120.1486,199.04802 -6.04408,-11.92292 2.27216,13.17286 -4.19955,-12.69058 0.28347,13.36438 -2.26121,-13.17474 -1.71155,13.25735 -0.27236,-13.36461 -3.66835,12.8542 1.72258,-13.25594 -5.54319,12.16389 3.67902,-12.85114 -7.294206,11.20185 5.553296,-12.15927 -8.882286,9.98959 7.303516,-11.19578 -10.27195,8.55417 8.89059,-9.9822 -11.432158,6.92768 10.27906,-8.54564 -12.336988,5.14643 11.437912,-6.91817 -12.966229,3.25021 12.341261,-5.13617 -13.305826,1.2814 12.968926,-3.23944 -13.348194,-0.71605 13.306887,-1.27033 -13.092385,-2.6975 13.347594,0.72714 -12.544113,-4.61868 13.090138,2.70838 -11.715627,-6.4367 12.54027,4.62911 -10.625433,-8.11093 11.710272,6.44643 -9.297883,-9.60398 10.618686,8.11976 -7.762635,-10.88248 9.289895,9.6117 -6.053981,-11.9179 7.753591,10.88894 -4.210098,-12.68709 6.044078,11.92293 -2.27216,-13.17287 4.19954,12.69058 -0.28346,-13.36438 2.26121,13.17475 1.71155,-13.25736 0.27236,13.36461 3.66835,-12.85419 -1.72258,13.25593 5.54319,-12.16388 -3.67903,12.85114 7.29421,-11.20186 -5.55329,12.15928 8.88228,-9.9896 -7.30351,11.19579 10.27195,-8.55418 -8.89059,9.9822 11.43216,-6.92768 -10.27906,8.54564 12.33698,-5.14643 -11.43791,6.91818 12.96623,-3.25022 -12.34126,5.13618 13.30583,-1.2814 -12.96893,3.23944 13.34819,0.71604 -13.30688,1.27034 13.09238,2.69749 -13.34759,-0.72714 12.54411,4.61868 -13.09014,-2.70837 11.71563,6.4367 -12.54027,-4.62911 10.62543,8.11093 -11.71027,-6.44644 9.29789,9.60398 -10.61869,-8.11976 7.76263,10.88249 -9.28989,-9.6117 6.05398,11.91789 -7.75359,-10.88893 z"
       inkscape:transform-center-y="2.5763045e-06"
       inkscape:export-xdpi="9.6899996"
       inkscape:export-ydpi="9.6899996" />
    <g
       id="g36"
       transform="matrix(0.66130843,0.41568718,-0.41568718,0.66130843,108.25709,67.272547)"
       style="fill:#ffc786;fill-opacity:1"
       inkscape:export-xdpi="9.6899996"
       inkscape:export-ydpi="9.6899996">
      <path
         style="fill:#ffc786;fill-opacity:1;stroke-width:0.26458332"
         d="m -19.487523,165.95126 c -4.170014,-1.12138 -7.522515,-4.51306 -8.617935,-8.71866 -0.350852,-1.34702 -0.404709,-4.95036 -0.399114,-26.70311 0.0042,-16.2951 0.102438,-25.56246 0.279125,-26.32924 0.892956,-3.87522 3.792173,-7.183343 7.687936,-8.772239 1.737387,-0.708597 7.878952,-1.063189 8.564221,-0.494467 0.298799,0.247981 0.394591,0.919171 0.391533,2.743305 -0.0021,1.328249 -0.09153,2.550251 -0.198438,2.715551 -0.117983,0.18242 -1.338342,0.34354 -3.104803,0.40992 -3.245197,0.12194 -4.571256,0.59902 -5.998588,2.15812 -1.572758,1.71794 -1.542649,1.18052 -1.535569,27.40807 0.0042,15.38498 0.103516,24.38912 0.277577,25.15354 0.384431,1.6883 1.355666,3.02788 2.818884,3.88798 l 1.262696,0.74223 H 7.3607503 32.781499 l 1.295172,-0.80074 c 0.802275,-0.49601 1.599912,-1.29344 2.095918,-2.09537 l 0.800746,-1.29463 0.07829,-10.07496 c 0.06247,-8.03931 -0.0038,-10.60966 -0.327864,-12.7213 -1.069462,-6.96812 -1.191551,-14.50514 -0.300016,-18.52133 0.872455,-3.93026 2.94396,-8.9709 5.072134,-12.34214 0.350255,-0.55484 0.636828,-1.132 0.636828,-1.28258 0,-0.18408 -2.57878,-0.25082 -7.871354,-0.2037 l -7.871354,0.0701 -0.148384,1.98437 c -0.239932,3.20872 -1.457166,4.72751 -3.983397,4.97025 -1.582251,0.15203 -2.63778,-0.25926 -3.663511,-1.4275 -1.23992,-1.41219 -1.382898,-2.44916 -1.287267,-9.335983 0.09434,-6.79346 0.192556,-7.281512 1.704764,-8.471015 1.74114,-1.36958 3.97557,-1.348798 5.57078,0.05181 1.256464,1.10319 1.674723,2.172628 1.674723,4.282064 v 1.72829 h 10.277729 10.277732 l 1.562372,1.010493 c 1.830671,1.184018 6.320377,4.428961 16.908209,12.220421 4.220104,3.10553 8.476588,6.23567 9.458854,6.95588 0.982265,0.72021 1.785937,1.46481 1.785937,1.65465 0,0.35104 -2.995758,2.20078 -28.178125,17.39873 l -5.027083,3.03392 -0.132779,10.01764 c -0.128494,9.69448 -0.1525,10.06651 -0.744116,11.53232 -1.415968,3.50826 -4.371848,6.25399 -7.9087,7.34641 -1.675025,0.51736 -2.403444,0.53115 -27.1594637,0.51421 -21.3568753,-0.0146 -25.6673113,-0.079 -26.8657993,-0.4013 z m 69.822316,-40.38684 c 6.019396,-3.66842 6.215343,-3.8144 6.143527,-4.57676 -0.374131,-3.97161 -0.348199,-6.75575 0.07775,-8.34821 0.250047,-0.93483 0.50724,-1.93781 0.571537,-2.22885 0.09505,-0.43026 -0.699482,-1.11028 -4.250645,-3.63802 -2.402153,-1.70987 -4.526995,-3.10886 -4.721874,-3.10886 -0.727019,0 -3.81281,5.85806 -4.947708,9.39271 -0.910225,2.83491 -1.339257,5.67151 -1.339257,8.85465 0,2.38153 0.451897,7.60732 0.691343,7.99474 0.172132,0.27852 0.44056,0.12864 7.775323,-4.3414 z m -64.742168,23.88116 c -0.740931,-0.31345 -0.957908,-1.43587 -0.835914,-4.32413 0.129513,-3.0663 0.161761,-3.09315 3.715374,-3.09315 1.5924771,0 3.125711,0.12326 3.4071854,0.2739 0.4617455,0.24712 0.5117729,0.58018 0.5117729,3.40718 0,2.58918 -0.07584,3.19636 -0.4367292,3.49642 -0.5210598,0.43325 -5.4640131,0.61955 -6.3616891,0.23978 z m 12.3546683,-0.074 c -0.6422152,-0.33636 -0.6636438,-0.4385 -0.7365471,-3.51115 -0.065148,-2.74571 -0.014658,-3.20889 0.381299,-3.49843 0.6932216,-0.50689 6.2713235,-0.45969 6.6998877,0.0567 0.3990578,0.48084 0.3846883,6.47953 -0.016484,6.88163 -0.4227592,0.42373 -5.5450475,0.4814 -6.328156,0.0712 z m 12.4354167,0.15767 c -0.8834094,-0.34168 -1.0583333,-0.97446 -1.0583333,-3.82847 0,-3.73081 -0.060918,-3.6725 3.8364583,-3.6725 3.897376,0 3.836458,-0.0583 3.836458,3.6725 0,3.85756 0.0046,3.85241 -3.483972,3.92505 -1.503553,0.0313 -2.91233,-0.0122 -3.130611,-0.0966 z m 12.187452,-0.15007 c -0.851675,-0.44832 -1.145437,-1.68019 -1.033277,-4.33303 0.126521,-2.99255 0.158466,-3.01787 3.808282,-3.01787 3.900938,0 3.82296,-0.078 3.82296,3.82296 0,2.45757 -0.07795,3.05622 -0.436812,3.35454 -0.604432,0.50247 -5.285724,0.63423 -6.161153,0.1734 z m -36.874874,-13.34573 c -0.725633,-0.20518 -0.977161,-1.2053 -0.977161,-3.88539 0,-3.56214 0.0545,-3.61352 3.832563,-3.61352 3.9207972,0 3.8403533,-0.0801 3.8403533,3.82295 0,2.45732 -0.077975,3.05625 -0.4367292,3.35455 -0.440137,0.36595 -5.2313361,0.61199 -6.2590261,0.32141 z m 12.2520053,-0.15531 c -0.6421966,-0.33665 -0.6636438,-0.43891 -0.7365471,-3.51146 -0.065148,-2.74571 -0.014658,-3.20889 0.381299,-3.49843 0.6142726,-0.44916 6.2057492,-0.4628 6.6523315,-0.0162 0.210693,0.21069 0.3175,1.35687 0.3175,3.40718 0,2.54891 -0.076454,3.15324 -0.4368112,3.45282 -0.6111796,0.50807 -5.2856369,0.63376 -6.1777722,0.1661 z m 12.1708337,0.005 c -0.6400565,-0.34036 -0.6638637,-0.45122 -0.7357669,-3.42623 -0.096917,-4.00995 -0.1812846,-3.92237 3.7784749,-3.92237 3.897376,0 3.836458,-0.0583 3.836458,3.67249 0,3.81377 0.01984,3.79131 -3.466504,3.92351 -1.95497,0.0741 -2.942638,0.003 -3.412662,-0.24741 z m 12.382854,0.0333 c -0.582297,-0.22277 -0.747085,-0.49366 -0.893265,-1.46846 -0.248325,-1.65594 0.0011,-5.01572 0.408705,-5.50695 0.4963,-0.598 6.136415,-0.5902 6.735931,0.009 0.622674,0.62267 0.605193,6.24113 -0.02103,6.76172 -0.541221,0.44993 -5.189887,0.60241 -6.230334,0.20437 z m -36.539818,-13.38188 c -1.000855,-0.16634 -1.243036,-0.92233 -1.243036,-3.88022 0,-3.54752 0.06825,-3.61352 3.736565,-3.61352 1.6020437,0 3.143104,0.12325 3.4245784,0.27389 0.4617455,0.24712 0.5117729,0.58018 0.5117729,3.40718 0,2.58981 -0.075787,3.19628 -0.4369223,3.49643 -0.4409546,0.36647 -4.425638,0.57674 -5.992958,0.31624 z m 12.3830053,-4.5e-4 c -1.100111,-0.29501 -1.190625,-0.57404 -1.190625,-3.67034 0,-3.89843 -0.075073,-3.82295 3.80244089,-3.82295 1.95791671,0 3.07914941,0.10825 3.28839251,0.3175 0.210693,0.21069 0.3175,1.35687 0.3175,3.40718 0,2.54927 -0.076422,3.1532 -0.4369224,3.45282 -0.4467331,0.37127 -4.70616753,0.60396 -5.780786,0.31579 z m 12.0385417,0.0105 c -0.8844492,-0.34836 -1.0583333,-0.97784 -1.0583333,-3.83128 0,-3.72816 -0.057825,-3.67248 3.8143493,-3.67248 3.87344,0 3.858567,-0.0144 3.858567,3.74057 0,3.76785 0.0013,3.76645 -3.478784,3.85211 -1.506408,0.0371 -2.917518,-0.003 -3.135799,-0.0889 z m 12.233132,-0.088 c -0.329538,-0.14179 -0.701818,-0.52888 -0.827288,-0.86021 -0.291087,-0.76868 -0.04813,-5.78662 0.301392,-6.22481 0.420957,-0.52774 6.122395,-0.45497 6.662406,0.085 0.599882,0.59988 0.607285,6.23966 0.0088,6.73632 -0.506572,0.42041 -5.302766,0.62619 -6.145353,0.26365 z M -7.2968462,107.45209 c -0.4831848,-0.2381 -1.1975598,-0.85094 -1.5875,-1.36186 l -0.7089855,-0.92894 -0.078409,-7.120755 -0.078409,-7.120759 0.6699806,-1.143239 c 0.7368407,-1.257319 2.3924974,-2.252397 3.747643,-2.252397 1.0615718,0 2.9927841,1.021234 3.6612062,1.936063 0.4072573,0.55739 0.5780273,1.291589 0.67694707,2.910416 l 0.13229166,2.164979 8.06979167,0.132292 8.0697925,0.132291 v 2.910417 2.910412 l -8.0697925,0.1323 -8.06979167,0.13229 -0.13229166,2.16498 c -0.14581977,2.38635 -0.54066017,3.18037 -2.11397587,4.25116 -1.0582513,0.72024 -2.8980051,0.78628 -4.1884975,0.15035 z"
         id="path50"
         inkscape:connector-curvature="0" />
      <path
         style="fill:#ffc786;fill-opacity:1;stroke-width:0.26458332"
         d="m -18.692794,165.81921 c -3.083357,-0.60553 -6.15657,-2.81763 -7.815372,-5.62549 -1.773667,-3.00229 -1.743408,-2.48714 -1.734113,-29.52312 0.0055,-15.96193 0.104847,-24.86008 0.288847,-25.86773 0.895853,-4.906025 4.796822,-8.74302 9.761142,-9.601059 0.945885,-0.163488 2.672292,-0.261205 3.836458,-0.217149 l 2.116667,0.0801 0.0754,2.711979 0.0754,2.711979 -2.721237,0.003 c -2.30794,0.002 -2.922157,0.0976 -4.044151,0.62799 -1.589988,0.75167 -2.562116,1.73927 -3.285884,3.33817 -0.529753,1.17031 -0.539052,1.61323 -0.544764,25.94818 -0.0051,21.81034 0.04362,24.90264 0.409463,25.97632 0.526252,1.54446 2.541107,3.48749 4.032981,3.88921 0.746675,0.20106 8.6703479,0.26681 26.15883,0.21705 27.819948,-0.0792 25.709941,0.0594 27.580897,-1.81153 1.782373,-1.78237 1.732166,-1.42493 1.818195,-12.94423 0.06205,-8.30873 -0.0042,-10.9934 -0.322934,-13.09687 -1.946553,-12.84403 -0.794578,-20.68583 4.313796,-29.36517 0.745275,-1.26626 1.355045,-2.41185 1.355045,-2.54576 0,-0.14455 -3.359523,-0.21508 -8.26823,-0.17357 l -8.268229,0.0699 -0.161808,2.17596 c -0.135803,1.82624 -0.279609,2.33041 -0.894773,3.13693 -1.314866,1.72388 -3.209798,2.12679 -5.157788,1.09667 -2.04207,-1.07988 -2.120006,-1.42333 -2.120006,-9.342866 0,-6.730692 0.01548,-6.933048 0.595313,-7.785008 0.958085,-1.407721 1.884714,-1.951155 3.326976,-1.951155 2.706966,0 4.279795,1.90226 4.279795,5.176207 v 1.787321 l 10.517187,0.07485 10.517188,0.07485 2.248958,1.571568 c 1.236927,0.864362 2.903802,2.064711 3.704167,2.66744 0.800364,0.602729 3.241145,2.387173 5.423958,3.965443 9.978644,7.21499 17.594792,12.94194 17.594792,13.23038 0,0.28721 -4.196948,2.87305 -25.863021,15.93476 l -7.209896,4.34659 v 9.31496 c 0,10.07685 -0.09752,10.9802 -1.479767,13.70794 -0.883867,1.74423 -3.077541,3.9379 -4.821769,4.82177 -3.00186,1.52116 -2.217815,1.4823 -29.2743655,1.45078 -13.6847633,-0.016 -25.4042735,-0.13168 -26.0433525,-0.25719 z m 68.329836,-39.44563 c 3.657981,-2.20718 6.842527,-4.17505 7.076766,-4.37303 0.385138,-0.32552 0.38881,-0.5175 0.03838,-2.00621 -0.511408,-2.17256 -0.304562,-6.38304 0.413723,-8.42155 0.287523,-0.81601 0.445725,-1.60321 0.351558,-1.74935 -0.283208,-0.43951 -9.07124,-6.68888 -9.406073,-6.68888 -0.424447,0 -2.222182,2.83274 -3.52615,5.55625 -2.418918,5.05222 -3.137987,8.82834 -2.893695,15.19597 0.200099,5.2157 0.37845,6.49986 0.90273,6.49986 0.21554,0 3.384785,-1.80588 7.042766,-4.01306 z m -64.213359,22.62208 c -0.32508,-0.32507 -0.198662,-6.0455 0.14111,-6.38527 0.398233,-0.39823 5.3209723,-0.43372 6.049894,-0.0436 0.4573191,0.24475 0.511773,0.57695 0.511773,3.12208 0,1.86249 -0.1098815,2.95808 -0.3175,3.16569 -0.3397726,0.33978 -6.060199,0.46619 -6.385277,0.14111 z m 12.319815,-0.13323 c -0.4427458,-0.44275 -0.4495032,-5.81041 -0.00787,-6.25204 0.4771548,-0.47716 5.8716703,-0.43322 6.2736174,0.0511 0.2024856,0.24398 0.2805271,1.38448 0.2308331,3.37343 l -0.075075,3.00484 -3.0480662,0.074 c -2.1456174,0.0521 -3.1444009,-0.0223 -3.3734375,-0.25135 z m 12.1150751,-0.21015 c -0.3630163,-0.6783 -0.063881,-5.88916 0.3534439,-6.1569 0.444336,-0.28508 5.526569,-0.23738 5.991526,0.0562 0.493925,0.31189 0.715921,4.78844 0.292233,5.89284 l -0.279136,0.7276 h -3.039949 c -2.750838,0 -3.066401,-0.0494 -3.3181179,-0.51977 z m 12.3421929,0.34338 c -0.32508,-0.32507 -0.198662,-6.0455 0.141111,-6.38527 0.207618,-0.20762 1.303208,-0.3175 3.165692,-0.3175 2.545133,0 2.877333,0.0545 3.122083,0.51177 0.390107,0.72892 0.354624,5.65166 -0.04361,6.04989 -0.339772,0.33978 -6.060199,0.46619 -6.385277,0.14111 z m -36.777083,-13.49374 c -0.32508,-0.32508 -0.198662,-6.04551 0.14111,-6.38528 0.398233,-0.39823 5.3209723,-0.43372 6.049894,-0.0436 0.4573191,0.24475 0.511773,0.57695 0.511773,3.12208 0,1.86249 -0.1098815,2.95808 -0.3175,3.16569 -0.3397726,0.33978 -6.060199,0.4662 -6.385277,0.14112 z m 12.3119437,-0.14112 c -0.2070074,-0.207 -0.3175,-1.29351 -0.3175,-3.12208 0,-1.82856 0.1104926,-2.91507 0.3175,-3.12208 0.4354089,-0.43541 5.8087577,-0.43541 6.2441666,0 0.332994,0.33299 0.4611397,5.35032 0.1569006,6.14315 -0.1332098,0.34714 -0.6656732,0.41851 -3.1220833,0.41851 -1.95059833,0 -3.0698599,-0.10837 -3.2789839,-0.3175 z M 9.8628514,135.16653 C 9.7122109,134.88506 9.58896,133.52434 9.58896,132.14272 c 0,-3.31819 0.028078,-3.34479 3.524628,-3.33953 1.481193,0.002 2.871674,0.11679 3.089955,0.25459 0.508096,0.32075 0.73346,5.21525 0.279215,6.06402 -0.27604,0.51579 -0.519104,0.5565 -3.321923,0.5565 -2.719041,0 -3.051717,-0.0516 -3.2979836,-0.51177 z m 12.3379146,0.33539 c -0.32508,-0.32508 -0.198662,-6.04551 0.141111,-6.38528 0.435409,-0.43541 5.808757,-0.43541 6.244166,0 0.435409,0.43541 0.435409,5.80876 0,6.24416 -0.339772,0.33978 -6.060199,0.4662 -6.385277,0.14112 z m -36.777083,-13.49375 c -0.32508,-0.32508 -0.198662,-6.04551 0.14111,-6.38528 0.398233,-0.39823 5.3209723,-0.43372 6.049894,-0.0436 0.4573191,0.24475 0.511773,0.57695 0.511773,3.12208 0,1.86249 -0.1098815,2.95808 -0.3175,3.1657 -0.3397726,0.33977 -6.060199,0.46619 -6.385277,0.14111 z m 12.3119437,-0.14111 c -0.2070074,-0.20701 -0.3175,-1.29352 -0.3175,-3.12209 0,-1.82856 0.1104926,-2.91507 0.3175,-3.12208 0.4354089,-0.43541 5.8087577,-0.43541 6.2441666,0 0.4354089,0.43541 0.4354089,5.80876 0,6.24417 -0.2070073,0.207 -1.2935188,0.3175 -3.1220833,0.3175 -1.82856452,0 -2.915076,-0.1105 -3.1220833,-0.3175 z M 9.8628514,121.67278 C 9.7122109,121.39131 9.58896,120.03059 9.58896,118.64897 c 0,-3.31819 0.028078,-3.34479 3.524628,-3.33953 1.481193,0.002 2.853979,0.10601 3.050636,0.23063 0.393797,0.24955 0.596003,5.32927 0.246059,6.18146 -0.165526,0.4031 -0.583795,0.46303 -3.231835,0.46303 -2.736453,0 -3.06919,-0.0514 -3.3155966,-0.51178 z m 12.3379146,0.33539 c -0.32508,-0.32508 -0.198662,-6.04551 0.141111,-6.38528 0.435409,-0.43541 5.808757,-0.43541 6.244166,0 0.435409,0.43541 0.435409,5.80876 0,6.24417 -0.339772,0.33977 -6.060199,0.46619 -6.385277,0.14111 z M -6.9474983,107.25898 c -0.9730529,-0.43248 -1.8557135,-1.36434 -2.2313345,-2.35571 -0.1722252,-0.45456 -0.2799424,-3.23859 -0.276397,-7.143751 0.00656,-7.218241 0.1958684,-8.133417 1.8970361,-9.170591 1.1584913,-0.706313 3.2238871,-0.714874 4.3666331,-0.0181 1.3649113,0.83224 1.7850908,1.723415 1.9326039,4.098953 l 0.1322917,2.130397 8.0697917,0.132292 8.0697913,0.132292 v 2.645833 2.645835 l -8.0697913,0.13229 -8.0697917,0.13229 -0.1322917,2.11667 c -0.1592342,2.54774 -0.7154333,3.62326 -2.2605682,4.37125 -1.2481904,0.60424 -2.3022587,0.65037 -3.4279734,0.15005 z"
         id="path48"
         inkscape:connector-curvature="0" />
      <path
         style="fill:#ffc786;fill-opacity:1;stroke-width:0.26458332"
         d="m -18.127567,165.55855 c -4.675324,-0.60778 -8.626897,-4.4957 -9.559569,-9.40559 -0.47757,-2.51409 -0.37244,-49.24998 0.116037,-51.58465 0.75358,-3.60173 2.847388,-6.348378 6.043677,-7.92807 2.023201,-0.99992 4.835693,-1.563855 6.682262,-1.339865 0.560173,0.06795 1.345917,0.132031 1.746099,0.142404 l 0.727604,0.01886 v 2.381249 2.381252 h -2.662219 c -2.304587,0 -2.853859,0.0907 -4.088826,0.67489 -1.564327,0.74005 -2.596807,1.79972 -3.338221,3.42615 -0.455984,1.00029 -0.482622,2.43698 -0.485672,26.19375 l -0.0032,25.13542 0.62541,1.32291 c 0.751667,1.58999 1.739265,2.56212 3.338171,3.28589 1.170538,0.52986 1.611923,0.53905 26.1630528,0.54476 18.8480332,0.004 25.2395092,-0.0731 26.0614582,-0.31595 1.453314,-0.4294 3.645162,-2.62125 4.074557,-4.07456 0.491741,-1.66433 0.443915,-21.02077 -0.05991,-24.24767 -1.028533,-6.58755 -1.12005,-12.08514 -0.280651,-16.8594 0.679117,-3.86263 2.731921,-8.9951 5.046954,-12.61853 1.615153,-2.52798 2.238646,-2.33537 -7.559629,-2.33537 H 25.86086 l -0.159449,2.14213 c -0.193884,2.60473 -0.724728,3.61544 -2.29921,4.37764 -1.854428,0.89771 -3.747495,0.33284 -4.829024,-1.44091 -0.475134,-0.77925 -0.515626,-1.37127 -0.516536,-7.552415 -7.94e-4,-5.718357 0.06413,-6.844127 0.440854,-7.638008 0.671976,-1.416082 1.759255,-1.976227 3.605768,-1.857619 2.55074,0.163842 3.603837,1.691123 3.618992,5.248548 l 0.0063,1.481449 2.579687,0.170828 c 1.418829,0.09396 6.21887,0.171444 10.66676,0.172197 l 8.087063,0.0014 2.496259,1.747899 c 1.372944,0.961345 2.85345,2.084262 3.290012,2.495374 0.436562,0.411117 1.284391,1.024337 1.884064,1.362717 1.891919,1.06758 20.988824,15.1516 20.908383,15.41999 -0.08007,0.26716 -3.474331,2.34795 -21.337239,13.08037 -5.893593,3.541 -10.923984,6.62099 -11.178646,6.84443 -0.422981,0.3711 -0.463473,1.15198 -0.468262,9.03033 -0.0029,4.74325 -0.124277,9.44766 -0.269766,10.45424 -0.710264,4.914 -4.609156,8.86485 -9.537364,9.66447 -2.028076,0.32906 -48.443756,0.32641 -50.977072,-0.003 z M 49.7332,126.65128 c 3.896137,-2.34549 7.236417,-4.40728 7.422848,-4.58175 0.275225,-0.25757 0.263522,-0.63729 -0.06224,-2.01933 -0.703043,-2.98269 -0.474861,-5.82019 0.779073,-9.68794 0.163656,-0.5048 -0.207483,-0.86944 -2.947828,-2.89622 -1.724282,-1.27528 -3.764767,-2.83111 -4.534414,-3.45739 -0.770916,-0.6273 -1.680728,-1.13868 -2.025885,-1.13868 -0.747702,0 -2.647974,2.13498 -3.10052,3.48348 -0.162825,0.48518 -0.439912,1.06074 -0.615752,1.27902 -0.635828,0.7893 -2.512068,6.34427 -2.906191,8.60434 -0.464325,2.66264 -0.526976,8.40248 -0.129577,11.87132 0.279109,2.4363 0.38412,2.80768 0.793909,2.80768 0.133479,0 3.430437,-1.91904 7.326572,-4.26453 z m -64.044934,22.0798 c -0.09701,-0.097 -0.176389,-1.45349 -0.176389,-3.0144 0,-2.34382 0.07288,-2.86598 0.418515,-2.99861 0.784736,-0.30113 5.2816336,-0.17545 5.6139847,0.1569 0.332351,0.33235 0.4580308,4.82925 0.1569005,5.61399 -0.132633,0.34563 -0.6547908,0.41851 -2.9986102,0.41851 -1.560907,0 -2.917388,-0.0794 -3.014401,-0.17639 z m 12.1582555,-0.23375 c -0.3035512,-0.79104 -0.1806231,-5.28805 0.1536885,-5.62236 0.3634396,-0.36344 5.1619468,-0.44207 5.7111768,-0.0936 0.2511478,0.15935 0.3203681,0.97161 0.2645833,3.1048 l -0.075552,2.88899 -2.94504265,0.0745 c -2.51030055,0.0635 -2.96922565,0.0115 -3.10885415,-0.35237 z m 12.2535425,-0.17651 c -0.0598,-1.99964 0.07814,-5.12908 0.232878,-5.28309 0.100131,-0.0996 1.432216,-0.21872 2.960185,-0.26458 l 2.778125,-0.0834 v 3.04271 3.04271 l -2.976563,0.0748 c -2.940415,0.0739 -2.976782,0.0675 -2.994625,-0.52917 z m 12.365286,0.41026 c -0.09702,-0.097 -0.17639,-1.45349 -0.17639,-3.0144 0,-2.34382 0.07288,-2.86598 0.418515,-2.99861 0.784736,-0.30113 5.281634,-0.17545 5.613985,0.1569 0.332351,0.33235 0.458031,4.82925 0.156901,5.61399 -0.132633,0.34563 -0.654791,0.41851 -2.998611,0.41851 -1.560906,0 -2.917388,-0.0794 -3.0144,-0.17639 z m -36.777084,-13.49375 c -0.09701,-0.097 -0.176389,-1.45349 -0.176389,-3.0144 0,-2.34382 0.07288,-2.86598 0.418515,-2.99861 0.784736,-0.30113 5.2816336,-0.17545 5.6139847,0.1569 0.332351,0.33235 0.4580308,4.82925 0.1569005,5.61399 -0.132633,0.34563 -0.6547908,0.41851 -2.9986102,0.41851 -1.560907,0 -2.917388,-0.0794 -3.014401,-0.17639 z m 12.1582555,-0.23375 c -0.3035512,-0.79104 -0.1806231,-5.28805 0.1536885,-5.62236 0.4744588,-0.47446 5.3447606,-0.43049 5.7450805,0.0519 0.200615,0.24173 0.2803789,1.31598 0.2308331,3.10885 l -0.075705,2.7395 -2.94504265,0.0745 c -2.51030055,0.0635 -2.96922565,0.0115 -3.10885415,-0.35237 z m 12.2055755,-0.25797 c -0.1374667,-0.71911 0.0223,-4.77627 0.211074,-5.36016 0.08247,-0.25509 0.819656,-0.32101 2.95896,-0.26458 l 2.849121,0.0751 v 3.04271 3.04271 l -2.94412,0.0745 -2.944119,0.0745 z m 12.413253,0.49172 c -0.09702,-0.097 -0.17639,-1.45349 -0.17639,-3.0144 0,-2.34382 0.07288,-2.86598 0.418515,-2.99861 0.784736,-0.30113 5.281634,-0.17545 5.613985,0.1569 0.332351,0.33235 0.458031,4.82925 0.156901,5.61399 -0.132633,0.34563 -0.654791,0.41851 -2.998611,0.41851 -1.560906,0 -2.917388,-0.0794 -3.0144,-0.17639 z m -36.777084,-13.49375 c -0.09701,-0.097 -0.176389,-1.45349 -0.176389,-3.0144 0,-2.34382 0.07288,-2.86598 0.418515,-2.99861 0.784736,-0.30113 5.2816336,-0.17545 5.6139847,0.1569 0.332351,0.33235 0.4580308,4.82925 0.1569005,5.61399 -0.132633,0.34564 -0.6547908,0.41851 -2.9986102,0.41851 -1.560907,0 -2.917388,-0.0794 -3.014401,-0.17639 z m 12.3202731,-0.13278 c -0.4402349,-0.44023 -0.4472861,-5.28437 -0.00833,-5.72333 0.3634396,-0.36344 5.1619468,-0.44207 5.7111768,-0.0936 0.2511478,0.15935 0.3203681,0.97161 0.2645833,3.1048 l -0.075552,2.88899 -2.7830251,0.0745 c -1.93905182,0.0519 -2.8818337,-0.0243 -3.1088541,-0.25136 z m 12.2272399,-0.0304 c -0.07548,-0.19669 -0.103061,-1.59973 -0.0613,-3.11786 l 0.07593,-2.76024 h 2.910417 2.910417 v 3.04271 3.04271 l -2.849121,0.0752 c -2.202685,0.0581 -2.880257,-0.006 -2.986352,-0.28247 z m 12.229571,0.16322 c -0.09702,-0.097 -0.17639,-1.45349 -0.17639,-3.0144 0,-2.34382 0.07288,-2.86598 0.418515,-2.99861 0.784736,-0.30113 5.281634,-0.17545 5.613985,0.1569 0.332351,0.33235 0.458031,4.82925 0.156901,5.61399 -0.132633,0.34564 -0.654791,0.41851 -2.998611,0.41851 -1.560906,0 -2.917388,-0.0794 -3.0144,-0.17639 z M -6.996097,106.8677 c -1.9411289,-0.90584 -2.055876,-1.36114 -2.1513033,-8.536201 -0.094612,-7.113742 0.039791,-7.984685 1.4190478,-9.19569 1.6231896,-1.42518 4.3294167,-1.041099 5.6202685,0.797656 0.2956322,0.421114 0.4902624,1.38709 0.5807446,2.882341 l 0.1360911,2.248959 8.0697916,0.153298 c 4.4383857,0.08431 8.0995577,0.17361 8.1359377,0.198437 0.03638,0.02483 0.06615,1.116702 0.06615,2.426389 v 2.381251 H 6.8391428 c -9.1362451,0 -8.3624156,-0.228458 -8.3630929,2.46904 -7.938e-4,3.61615 -2.5316127,5.54674 -5.4721469,4.17452 z"
         id="path46"
         inkscape:connector-curvature="0" />
      <path
         style="fill:#ffc786;fill-opacity:1;stroke-width:0.26458332"
         d="m 3.680793,165.32391 c 2.4985821,-0.0795 4.6317853,-0.23386 4.7404523,-0.343 0.108667,-0.10914 -7.938e-4,-0.19844 -0.2433955,-0.19844 -0.2425356,0 -0.446159,-0.0893 -0.4524957,-0.19844 -0.00632,-0.10914 -0.1110827,-0.71358 -0.2327672,-1.34321 -0.1992233,-1.03082 -0.1651556,-1.16569 0.3422517,-1.35493 0.4183089,-0.15602 0.05221,-0.27799 -1.4208786,-0.4734 -1.788123,-0.23721 -1.4217888,-0.27087 3.704167,-0.34039 3.128698,-0.0424 5.867135,-0.0609 6.085416,-0.0411 0.218282,0.0199 3.638135,0.0809 7.599675,0.13569 5.272836,0.0729 7.310263,0.18878 7.603858,0.43244 0.648737,0.53841 0.209296,0.80206 -1.336826,0.80206 -1.608958,0 -1.806342,0.20336 -1.795719,1.85007 0.0033,0.51043 -0.121722,1.01553 -0.277813,1.12244 -0.156091,0.10692 -6.713175,0.17197 -14.5713,0.14457 -8.1207686,-0.0283 -12.3267149,-0.11222 -9.744625,-0.19439 z m 6.900355,-0.45924 c -0.254662,-0.0665 -0.6713807,-0.0665 -0.9260422,0 -0.2546614,0.0666 -0.046302,0.121 0.4630212,0.121 0.509323,0 0.717682,-0.0545 0.463021,-0.121 z M 2.8592194,148.67061 c -0.080513,-0.13027 0.031522,-0.30513 0.2489676,-0.38857 0.2174452,-0.0834 0.3953563,-0.46013 0.3953563,-0.83709 0,-0.38954 0.1142048,-0.61479 0.2645834,-0.52185 0.3657256,0.22603 0.3322082,1.28175 -0.052917,1.66687 -0.3778382,0.37784 -0.6561111,0.40405 -0.8559906,0.0806 z m 7.4352966,0.0605 c -0.3277072,-0.3277 -0.179223,-2.22566 0.237109,-3.03075 0.315545,-0.6102 0.341488,-0.88639 0.109514,-1.1659 -0.416441,-0.50178 -0.09784,-0.91863 0.702128,-0.91863 0.365606,0 0.848656,-0.18391 1.073443,-0.4087 0.299953,-0.29995 0.840539,-0.38795 2.031622,-0.33073 l 1.62292,0.078 0.07605,2.60678 c 0.04944,1.69482 -0.03131,2.73615 -0.230836,2.97656 -0.224239,0.2702 -0.998828,0.36978 -2.876227,0.36978 -1.413137,0 -2.648714,-0.0794 -2.745727,-0.17639 z m -12.3472227,-3.00727 v -2.91909 l 2.97656253,0.0748 2.97656247,0.0748 0.083116,1.16042 c 0.045712,0.63824 -0.043585,1.28713 -0.1984375,1.44198 -0.1990169,0.19902 -0.2815537,-0.12177 -0.2815537,-1.09428 v -1.37583 H 0.84068671 -1.8221699 l 0.083169,2.77868 c 0.045744,1.52828 -0.00614,2.77843 -0.1152684,2.77813 -0.1091406,-2.7e-4 -0.1984375,-1.31415 -0.1984375,-2.91964 z m 24.6062497,0.009 v -2.64583 h 2.484263 2.484263 l -0.137959,2.31511 c -0.07588,1.2733 -0.161081,2.34402 -0.189341,2.37938 -0.02826,0.0353 -0.672399,0.18205 -1.431425,0.326 -1.022429,0.19389 -1.523241,0.17724 -1.932617,-0.0643 -0.439224,-0.25913 -0.577138,-0.25816 -0.672344,0.005 -0.35534,0.9812 -0.60484,0.0262 -0.60484,-2.31512 z M -1.8763169,135.23735 c -0.097015,-0.097 -0.1601761,-0.60303 -0.1403588,-1.12448 0.023468,-0.61725 0.076044,-0.74036 0.1506934,-0.35278 0.063066,0.32742 0.2324709,0.59531 0.3764598,0.59531 0.1439862,0 0.1997181,0.10045 0.1238461,0.22321 -0.075875,0.12276 0.66124142,0.22675 1.63803017,0.23107 1.73118993,0.008 1.74261723,0.003 0.45306456,-0.1708 -0.97797937,-0.13209 -1.20006004,-0.23503 -0.85173079,-0.39481 0.25915144,-0.11887 0.84174277,-0.14202 1.29464856,-0.0514 0.5008536,0.10017 0.9840066,0.0348 1.2332494,-0.167 0.319114,-0.2583 0.3662362,-0.25918 0.2129631,-0.004 -0.1339479,0.22301 -0.064923,0.27708 0.2160773,0.16925 0.5629222,-0.21601 0.7194047,-0.9979 0.6187361,-3.09162 -0.053671,-1.11623 0.014102,-1.74044 0.1828958,-1.68456 0.3927052,0.13002 0.4942232,5.17036 0.1133793,5.62924 -0.2242397,0.2702 -0.9988286,0.36978 -2.87622723,0.36978 -1.41313693,0 -2.64871467,-0.0794 -2.74572677,-0.17639 z m 12.1928809,0.0306 c -0.10914,-0.11383 -0.198437,-1.5007 -0.198437,-3.08194 v -2.87498 l 2.976562,0.0748 2.976563,0.0748 0.07624,2.62251 c 0.04193,1.44238 -0.03405,2.7328 -0.168862,2.86761 -0.310399,0.3104 -5.395431,0.59525 -5.662068,0.31718 z m 12.236979,-2.86604 c 0,-3.19214 -0.129278,-3.06383 3.093239,-3.06995 1.801487,-0.003 2.567564,0.26618 1.910405,0.67233 -0.194286,0.12008 -0.26425,0.96638 -0.202753,2.45248 0.09224,2.2289 0.08217,2.27243 -0.567557,2.4544 -0.363802,0.10189 -1.465131,0.19713 -2.447396,0.21163 l -1.785938,0.0264 z M -0.86208167,121.65543 c 0.4365625,-0.11109 1.60508157,-0.21606 2.59671077,-0.23328 l 1.8029608,-0.0313 -0.083169,-2.77875 c -0.053009,-1.77106 0.012779,-2.74675 0.1814142,-2.69053 0.389464,0.12985 0.4878467,5.17315 0.1098021,5.62867 -0.2275576,0.27419 -0.9653535,0.36168 -2.85417685,0.33847 -1.7411991,-0.0214 -2.29610975,-0.0952 -1.75354202,-0.23328 z m 11.15659767,0.0882 c -0.09701,-0.097 -0.176389,-1.46623 -0.176389,-3.04271 v -2.86631 h 2.879558 c 2.762549,0 2.886041,0.0242 3.039094,0.59531 0.291701,1.08847 0.182391,4.83948 -0.150736,5.1726 -0.338471,0.33847 -5.269719,0.46292 -5.591527,0.14111 z m 12.222041,-0.80716 c -0.05477,-0.40493 -0.03909,-1.68874 0.03485,-2.85291 l 0.13443,-2.11666 2.704634,-0.0753 c 3.185287,-0.0887 3.055385,-0.2387 2.929681,3.38261 l -0.07807,2.24896 -2.812973,0.0748 -2.812974,0.0748 z m -24.4738814,-2.72061 c 0,-1.38245 0.044593,-1.948 0.099097,-1.25678 0.054504,0.69123 0.054504,1.82232 0,2.51355 -0.054504,0.69122 -0.099097,0.12567 -0.099097,-1.25677 z m 4.0883417,-2.29741 c 0.1909948,-0.0764 0.4191979,-0.067 0.5071189,0.0209 0.087918,0.0879 -0.068352,0.15046 -0.3472656,0.13897 -0.3082264,-0.0127 -0.3709194,-0.0754 -0.1598533,-0.15985 z"
         id="path40"
         inkscape:connector-curvature="0"
         sodipodi:nodetypes="cssccccccccscccccscssccscccccccscccccsccccccccscccsccccccccccccsccccscccccccccccscccscccccccsccccccscccscccccscsscccccccccccsccsccccc" />
      <path
         style="fill:#ffc786;fill-opacity:1;stroke-width:0.26458332"
         d="m 3.680793,165.32391 c 2.4985821,-0.0795 4.6317853,-0.23386 4.7404523,-0.343 0.108667,-0.10914 -7.938e-4,-0.19844 -0.2433955,-0.19844 -0.2425356,0 -0.446159,-0.0893 -0.4524957,-0.19844 -0.00632,-0.10914 -0.1110827,-0.71358 -0.2327672,-1.34321 -0.1992233,-1.03082 -0.1651556,-1.16569 0.3422517,-1.35493 0.4183089,-0.15602 0.05221,-0.27799 -1.4208786,-0.4734 -1.788123,-0.23721 -1.4217888,-0.27087 3.704167,-0.34039 3.128698,-0.0424 5.867135,-0.0609 6.085416,-0.0411 0.218282,0.0199 3.638135,0.0809 7.599675,0.13569 5.272836,0.0729 7.310263,0.18878 7.603858,0.43244 0.648737,0.53841 0.209296,0.80206 -1.336826,0.80206 -1.608958,0 -1.806342,0.20336 -1.795719,1.85007 0.0033,0.51043 -0.121722,1.01553 -0.277813,1.12244 -0.156091,0.10692 -6.713175,0.17197 -14.5713,0.14457 -8.1207686,-0.0283 -12.3267149,-0.11222 -9.744625,-0.19439 z m 6.900355,-0.45924 c -0.254662,-0.0665 -0.6713807,-0.0665 -0.9260422,0 -0.2546614,0.0666 -0.046302,0.121 0.4630212,0.121 0.509323,0 0.717682,-0.0545 0.463021,-0.121 z M 2.8592194,148.67061 c -0.080513,-0.13027 0.031522,-0.30513 0.2489676,-0.38857 0.2174452,-0.0834 0.3953563,-0.46013 0.3953563,-0.83709 0,-0.38954 0.1142048,-0.61479 0.2645834,-0.52185 0.3657256,0.22603 0.3322082,1.28175 -0.052917,1.66687 -0.3778382,0.37784 -0.6561111,0.40405 -0.8559906,0.0806 z m 7.4352966,0.0605 c -0.3277072,-0.3277 -0.179223,-2.22566 0.237109,-3.03075 0.315545,-0.6102 0.341488,-0.88639 0.109514,-1.1659 -0.416441,-0.50178 -0.09784,-0.91863 0.702128,-0.91863 0.365606,0 0.848656,-0.18391 1.073443,-0.4087 0.299953,-0.29995 0.840539,-0.38795 2.031622,-0.33073 l 1.62292,0.078 0.07605,2.60678 c 0.04944,1.69482 -0.03131,2.73615 -0.230836,2.97656 -0.224239,0.2702 -0.998828,0.36978 -2.876227,0.36978 -1.413137,0 -2.648714,-0.0794 -2.745727,-0.17639 z m -12.3472227,-3.00727 v -2.91909 l 2.97656253,0.0748 2.97656247,0.0748 0.083116,1.16042 c 0.045712,0.63824 -0.043585,1.28713 -0.1984375,1.44198 -0.1990169,0.19902 -0.2815537,-0.12177 -0.2815537,-1.09428 v -1.37583 H 0.84068671 -1.8221699 l 0.083169,2.77868 c 0.045744,1.52828 -0.00614,2.77843 -0.1152684,2.77813 -0.1091406,-2.7e-4 -0.1984375,-1.31415 -0.1984375,-2.91964 z m 24.6062497,0.009 v -2.64583 h 2.484263 2.484263 l -0.137959,2.31511 c -0.07588,1.2733 -0.161081,2.34402 -0.189341,2.37938 -0.02826,0.0353 -0.672399,0.18205 -1.431425,0.326 -1.022429,0.19389 -1.523241,0.17724 -1.932617,-0.0643 -0.439224,-0.25913 -0.577138,-0.25816 -0.672344,0.005 -0.35534,0.9812 -0.60484,0.0262 -0.60484,-2.31512 z M -1.8763169,135.23735 c -0.097015,-0.097 -0.1601761,-0.60303 -0.1403588,-1.12448 0.023468,-0.61725 0.076044,-0.74036 0.1506934,-0.35278 0.063066,0.32742 0.2324709,0.59531 0.3764598,0.59531 0.1439862,0 0.1997181,0.10045 0.1238461,0.22321 -0.075875,0.12276 0.66124142,0.22675 1.63803017,0.23107 1.73118993,0.008 1.74261723,0.003 0.45306456,-0.1708 -0.97797937,-0.13209 -1.20006004,-0.23503 -0.85173079,-0.39481 0.25915144,-0.11887 0.84174277,-0.14202 1.29464856,-0.0514 0.5008536,0.10017 0.9840066,0.0348 1.2332494,-0.167 0.319114,-0.2583 0.3662362,-0.25918 0.2129631,-0.004 -0.1339479,0.22301 -0.064923,0.27708 0.2160773,0.16925 0.5629222,-0.21601 0.7194047,-0.9979 0.6187361,-3.09162 -0.053671,-1.11623 0.014102,-1.74044 0.1828958,-1.68456 0.3927052,0.13002 0.4942232,5.17036 0.1133793,5.62924 -0.2242397,0.2702 -0.9988286,0.36978 -2.87622723,0.36978 -1.41313693,0 -2.64871467,-0.0794 -2.74572677,-0.17639 z m 12.1928809,0.0306 c -0.10914,-0.11383 -0.198437,-1.5007 -0.198437,-3.08194 v -2.87498 l 2.976562,0.0748 2.976563,0.0748 0.07624,2.62251 c 0.04193,1.44238 -0.03405,2.7328 -0.168862,2.86761 -0.310399,0.3104 -5.395431,0.59525 -5.662068,0.31718 z m 12.236979,-2.86604 c 0,-3.19214 -0.129278,-3.06383 3.093239,-3.06995 1.801487,-0.003 2.567564,0.26618 1.910405,0.67233 -0.194286,0.12008 -0.26425,0.96638 -0.202753,2.45248 0.09224,2.2289 0.08217,2.27243 -0.567557,2.4544 -0.363802,0.10189 -1.465131,0.19713 -2.447396,0.21163 l -1.785938,0.0264 z M -0.86208167,121.65539 c 0.4365625,-0.11109 1.60508157,-0.21606 2.59671077,-0.23328 l 1.8029608,-0.0313 -0.083169,-2.77875 c -0.053009,-1.77106 0.012779,-2.74675 0.1814142,-2.69053 0.389464,0.12985 0.4878467,5.17315 0.1098021,5.62867 -0.2275576,0.27419 -0.9653535,0.36168 -2.85417685,0.33847 -1.7411991,-0.0214 -2.29610975,-0.0952 -1.75354202,-0.23328 z m 11.15659767,0.0882 c -0.09701,-0.097 -0.176389,-1.46623 -0.176389,-3.04271 v -2.86631 h 2.879558 c 2.762549,0 2.886041,0.0242 3.039094,0.59531 0.291701,1.08847 0.182391,4.83948 -0.150736,5.1726 -0.338471,0.33847 -5.269719,0.46292 -5.591527,0.14111 z m 12.222041,-0.80716 c -0.05477,-0.40493 -0.03909,-1.68874 0.03485,-2.85291 l 0.13443,-2.11666 2.704634,-0.0753 c 3.185287,-0.0887 3.055385,-0.2387 2.929681,3.38261 l -0.07807,2.24896 -2.812973,0.0748 -2.812974,0.0748 z m -24.4738814,-2.72061 c 0,-1.38245 0.044593,-1.948 0.099097,-1.25678 0.054504,0.69123 0.054504,1.82232 0,2.51355 -0.054504,0.69122 -0.099097,0.12567 -0.099097,-1.25677 z m 4.0883417,-2.29741 c 0.1909948,-0.0764 0.4191979,-0.067 0.5071189,0.0209 0.087918,0.0879 -0.068352,0.15046 -0.3472656,0.13897 -0.3082264,-0.0127 -0.3709194,-0.0754 -0.1598533,-0.15985 z"
         id="path38"
         inkscape:connector-curvature="0"
         sodipodi:nodetypes="cssccccccccscccccscssccscccccccscccccsccccccccscccsccccccccccccsccccscccccccccccscccscccccccsccccccscccscccccscsscccccccccccsccsccccc" />
    </g>
    <path
       sodipodi:type="star"
       style="opacity:1;fill:#2374a9;fill-opacity:1;fill-rule:nonzero;stroke:#ffc786;stroke-width:0.36041105;stroke-miterlimit:4;stroke-dasharray:none;stroke-opacity:1"
       id="path872-3"
       sodipodi:sides="42"
       sodipodi:cx="81.457096"
       sodipodi:cy="205.23834"
       sodipodi:r1="15.412301"
       sodipodi:r2="7.7061505"
       sodipodi:arg1="1.1760052"
       sodipodi:arg2="1.250805"
       inkscape:flatsided="false"
       inkscape:rounded="0"
       inkscape:randomized="0"
       d="m 87.3849,219.46508 -3.503774,-6.91177 1.31718,7.63636 -2.434494,-7.35677 0.164328,7.74738 -1.310833,-7.63745 -0.992195,7.68534 -0.157888,-7.74752 -2.126554,7.45163 0.998583,-7.68452 -3.21341,7.05145 2.132747,-7.44985 -4.228483,6.49376 3.21927,-7.04878 -5.149098,5.791 4.233879,-6.49024 -5.954692,4.95889 5.15391,-5.78672 -6.627268,4.01601 5.958812,-4.95395 -7.151801,2.98341 6.630604,-4.01049 -7.516575,1.88416 7.154278,-2.97746 -7.71344,0.74283 7.518138,-1.87791 -7.738001,-0.4151 7.714055,-0.73642 -7.589708,-1.56374 7.737654,0.42152 -7.271872,-2.67747 7.588404,1.57006 -6.791595,-3.73138 7.269644,2.68351 -6.159605,-4.70194 6.788491,3.73703 -5.39002,-5.56747 6.155695,4.70706 -4.500031,-6.30862 5.385391,5.57194 -3.509519,-6.90885 4.494786,6.31236 -2.440609,-7.35476 3.503774,6.91177 -1.31718,-7.63636 2.434495,7.35678 -0.164328,-7.74739 1.310832,7.63746 0.992196,-7.68535 0.157888,7.74752 2.126554,-7.45162 -0.998583,7.68451 3.21341,-7.05145 -2.132748,7.44986 4.228483,-6.49376 -3.21927,7.04878 5.149099,-5.79101 -4.233879,6.49024 5.954692,-4.95889 -5.15391,5.78672 6.627267,-4.016 -5.958812,4.95394 7.151801,-2.98341 -6.630603,4.0105 7.516574,-1.88416 -7.154278,2.97746 7.713441,-0.74284 -7.518138,1.87792 7.738001,0.41509 -7.714055,0.73642 7.589707,1.56375 -7.737653,-0.42153 7.271872,2.67747 -7.588405,-1.57005 6.791595,3.73138 -7.269644,-2.68352 6.159606,4.70194 -6.788492,-3.73702 5.390021,5.56746 -6.155695,-4.70705 4.500031,6.30862 -5.385391,-5.57195 3.509518,6.90886 -4.494785,-6.31236 z"
       inkscape:transform-center-y="1.3707728e-06"
       inkscape:transform-center-x="-5.2873853e-06"
       inkscape:export-xdpi="9.6899996"
       inkscape:export-ydpi="9.6899996" />
    <path
       sodipodi:type="star"
       style="opacity:1;fill:#2374a9;fill-opacity:1;fill-rule:nonzero;stroke:#ffc786;stroke-width:0.36041105;stroke-miterlimit:4;stroke-dasharray:none;stroke-opacity:1"
       id="path872-3-6"
       sodipodi:sides="42"
       sodipodi:cx="107.61699"
       sodipodi:cy="133.00757"
       sodipodi:r1="15.412301"
       sodipodi:r2="7.7061505"
       sodipodi:arg1="1.1760052"
       sodipodi:arg2="1.250805"
       inkscape:flatsided="false"
       inkscape:rounded="0"
       inkscape:randomized="0"
       d="m 113.5448,147.23431 -3.50378,-6.91177 1.31718,7.63636 -2.43449,-7.35678 0.16433,7.74739 -1.31084,-7.63746 -0.99219,7.68535 -0.15789,-7.74752 -2.12655,7.45163 0.99858,-7.68452 -3.21341,7.05145 2.13275,-7.44986 -4.22849,6.49376 3.21927,-7.04878 -5.149094,5.79101 4.233874,-6.49024 -5.954688,4.95889 5.153908,-5.78672 -6.627265,4.016 5.958815,-4.95394 -7.151804,2.98341 6.630604,-4.0105 -7.516575,1.88417 7.154275,-2.97746 -7.713438,0.74283 7.518138,-1.87792 -7.738001,-0.41509 7.714056,-0.73642 -7.589708,-1.56375 7.737653,0.42153 -7.271872,-2.67747 7.588402,1.57005 -6.791592,-3.73138 7.269642,2.68352 -6.159604,-4.70194 6.788494,3.73702 -5.390022,-5.56746 6.155692,4.70706 -4.500028,-6.30862 5.385388,5.57194 -3.509516,-6.90886 4.494786,6.31236 -2.44061,-7.35475 3.50378,6.91177 -1.31718,-7.63636 2.43449,7.35678 -0.16433,-7.74739 1.31083,7.63745 0.9922,-7.68534 0.15789,7.74752 2.12655,-7.45163 -0.99858,7.68452 3.21341,-7.05145 -2.13275,7.44985 4.22848,-6.49376 -3.21927,7.04878 5.1491,-5.791 -4.23388,6.49024 5.9547,-4.95889 -5.15391,5.78672 6.62726,-4.016 -5.95881,4.95394 7.1518,-2.98341 -6.6306,4.01049 7.51657,-1.88416 -7.15427,2.97746 7.71344,-0.74283 -7.51814,1.87791 7.738,0.4151 -7.71406,0.73642 7.58971,1.56375 -7.73765,-0.42153 7.27187,2.67747 -7.58841,-1.57006 6.7916,3.73138 -7.26964,-2.68351 6.1596,4.70194 -6.78849,-3.73702 5.39002,5.56746 -6.15569,-4.70706 4.50003,6.30862 -5.38539,-5.57194 3.50951,6.90885 -4.49478,-6.31236 z"
       inkscape:transform-center-y="1.3707728e-06"
       inkscape:transform-center-x="-5.2873853e-06"
       inkscape:export-xdpi="9.6899996"
       inkscape:export-ydpi="9.6899996" />
  </g>
</svg>
